arm260_states
version=1
nRows=41
nColumns=17
inDegrees=yes

# SIMM Motion File Header:
name arm260_states
datacolumns 17
datarows 41
otherdata 1
range 0.25479329 0.28208719
endheader
time	/jointset/r_shoulder/r_shoulder_elev/value	/jointset/r_shoulder/r_shoulder_elev/speed	/jointset/r_elbow/r_elbow_flex/value	/jointset/r_elbow/r_elbow_flex/speed	/forceset/TRIlong/activation	/forceset/TRIlong/fiber_length	/forceset/TRIlat/activation	/forceset/TRIlat/fiber_length	/forceset/TRImed/activation	/forceset/TRImed/fiber_length	/forceset/BIClong/activation	/forceset/BIClong/fiber_length	/forceset/BICshort/activation	/forceset/BICshort/fiber_length	/forceset/BRA/activation	/forceset/BRA/fiber_length
      0.25479329	     -0.00333344	      0.01124141	     30.00924974	     -0.03337742	      0.03675614	      0.14808122	      0.12629182	      0.08148353	      0.12219558	      0.07658525	      0.15754197	      0.13821072	      0.11238140	      0.13726607	      0.06243521	      0.08595998
      0.25510912	     -0.00332990	      0.01123935	     30.00923919	     -0.03348133	      0.03674991	      0.14808133	      0.12656710	      0.08148354	      0.12225541	      0.07658508	      0.15763112	      0.13821088	      0.11235878	      0.13726610	      0.06242566	      0.08596000
      0.25542494	     -0.00332634	      0.01128640	     30.00922858	     -0.03373806	      0.03672913	      0.14808145	      0.12660782	      0.08148354	      0.12217528	      0.07658493	      0.15801989	      0.13821101	      0.11236683	      0.13726612	      0.06242177	      0.08596002
      0.25638653	     -0.00331538	      0.01155420	     30.00919565	     -0.03487379	      0.03666645	      0.14808183	      0.12668123	      0.08148349	      0.12191410	      0.07658463	      0.15905337	      0.13821116	      0.11241450	      0.13726620	      0.06242617	      0.08596008
      0.25713119	     -0.00330664	      0.01190168	     30.00916918	     -0.03615614	      0.03661849	      0.14808215	      0.12659236	      0.08148347	      0.12170430	      0.07658456	      0.15943811	      0.13821106	      0.11251502	      0.13726623	      0.06247571	      0.08596011
      0.25787585	     -0.00329767	      0.01218888	     30.00914187	     -0.03722222	      0.03657102	      0.14808249	      0.12656755	      0.08148348	      0.12181311	      0.07658452	      0.15909334	      0.13821099	      0.11249145	      0.13726625	      0.06246909	      0.08596013
      0.25942084	     -0.00327828	      0.01296970	     30.00908236	     -0.03997123	      0.03650952	      0.14808322	      0.12678860	      0.08148339	      0.12183104	      0.07658435	      0.15856871	      0.13821113	      0.11243399	      0.13726630	      0.06244933	      0.08596018
      0.26096584	     -0.00325750	      0.01397867	     30.00901811	     -0.04333899	      0.03646996	      0.14808393	      0.12675467	      0.08148323	      0.12182455	      0.07658423	      0.15788371	      0.13821155	      0.11235703	      0.13726641	      0.06242950	      0.08596025
      0.26278012	     -0.00323078	      0.01550390	     30.00893512	     -0.04821923	      0.03645829	      0.14808469	      0.12656933	      0.08148317	      0.12166973	      0.07658418	      0.15688806	      0.13821246	      0.11232007	      0.13726658	      0.06243556	      0.08596032
      0.26395452	     -0.00321187	      0.01669015	     30.00887630	     -0.05189788	      0.03645089	      0.14808512	      0.12608602	      0.08148329	      0.12124629	      0.07658429	      0.15613711	      0.13821335	      0.11248277	      0.13726665	      0.06256386	      0.08596032
      0.26495071	     -0.00319471	      0.01776882	     30.00882298	     -0.05518512	      0.03644470	      0.14808546	      0.12543926	      0.08148358	      0.12070888	      0.07658454	      0.15523581	      0.13821433	      0.11258924	      0.13726663	      0.06256433	      0.08596027
      0.26520660	     -0.00319013	      0.01803553	     30.00880875	     -0.05599520	      0.03641950	      0.14808554	      0.12543995	      0.08148368	      0.12076061	      0.07658463	      0.15531737	      0.13821462	      0.11258285	      0.13726662	      0.06256062	      0.08596026
      0.26546249	     -0.00318548	      0.01829566	     30.00879432	     -0.05678736	      0.03638968	      0.14808564	      0.12547441	      0.08148378	      0.12084830	      0.07658471	      0.15545884	      0.13821489	      0.11257051	      0.13726660	      0.06255729	      0.08596025
      0.26606181	     -0.00317433	      0.01892240	     30.00875973	     -0.05867756	      0.03633134	      0.14808588	      0.12545882	      0.08148399	      0.12098267	      0.07658485	      0.15565911	      0.13821546	      0.11254454	      0.13726659	      0.06254969	      0.08596024
      0.26666112	     -0.00316279	      0.01959002	     30.00872397	     -0.06065775	      0.03632860	      0.14808613	      0.12498637	      0.08148425	      0.12081764	      0.07658499	      0.15528908	      0.13821605	      0.11253239	      0.13726659	      0.06254290	      0.08596023
      0.26712840	     -0.00315352	      0.02007789	     30.00869528	     -0.06210221	      0.03632648	      0.14808631	      0.12456298	      0.08148451	      0.12070375	      0.07658512	      0.15494084	      0.13821655	      0.11252192	      0.13726659	      0.06253688	      0.08596023
      0.26759568	     -0.00314403	      0.02057066	     30.00866592	     -0.06354354	      0.03632437	      0.14808648	      0.12385157	      0.08148487	      0.12065833	      0.07658526	      0.15428411	      0.13821713	      0.11250613	      0.13726659	      0.06252706	      0.08596023
      0.26795744	     -0.00313652	      0.02093324	     30.00864274	     -0.06460069	      0.03632275	      0.14808662	      0.12330548	      0.08148522	      0.12062341	      0.07658536	      0.15378013	      0.13821764	      0.11249399	      0.13726660	      0.06251951	      0.08596023
      0.26804539	     -0.00313467	      0.02101331	     30.00863705	     -0.06483526	      0.03631918	      0.14808665	      0.12324729	      0.08148532	      0.12063697	      0.07658539	      0.15370951	      0.13821777	      0.11249084	      0.13726660	      0.06251750	      0.08596023
      0.26816291	     -0.00313220	      0.02110211	     30.00862942	     -0.06509669	      0.03630238	      0.14808669	      0.12354118	      0.08148544	      0.12078440	      0.07658542	      0.15385369	      0.13821794	      0.11248581	      0.13726660	      0.06251415	      0.08596023
      0.26875052	     -0.00311971	      0.02138474	     30.00859090	     -0.06593603	      0.03621882	      0.14808693	      0.12493487	      0.08148583	      0.12148396	      0.07658547	      0.15454025	      0.13821871	      0.11246082	      0.13726662	      0.06249746	      0.08596024
      0.26908436	     -0.00311254	      0.02158356	     30.00856880	     -0.06651322	      0.03617936	      0.14808709	      0.12558562	      0.08148591	      0.12182035	      0.07658541	      0.15488300	      0.13821908	      0.11244744	      0.13726663	      0.06249129	      0.08596025
      0.26941820	     -0.00310530	      0.02178290	     30.00854649	     -0.06708867	      0.03617853	      0.14808725	      0.12577844	      0.08148594	      0.12197264	      0.07658529	      0.15509821	      0.13821941	      0.11243765	      0.13726665	      0.06250091	      0.08596026
      0.26989196	     -0.00309492	      0.02202823	     30.00851454	     -0.06779412	      0.03617737	      0.14808747	      0.12603640	      0.08148595	      0.12217629	      0.07658507	      0.15538711	      0.13821984	      0.11242386	      0.13726667	      0.06251366	      0.08596026
      0.27007400	     -0.00309090	      0.02213091	     30.00850217	     -0.06808864	      0.03617608	      0.14808755	      0.12611094	      0.08148594	      0.12222570	      0.07658497	      0.15557630	      0.13821999	      0.11242338	      0.13726668	      0.06251718	      0.08596027
      0.27025603	     -0.00308686	      0.02226325	     30.00848974	     -0.06847756	      0.03617060	      0.14808763	      0.12608474	      0.08148592	      0.12214865	      0.07658488	      0.15616973	      0.13822011	      0.11244637	      0.13726669	      0.06251506	      0.08596027
      0.27088714	     -0.00307264	      0.02280533	     30.00844602	     -0.07008123	      0.03615170	      0.14808791	      0.12599454	      0.08148589	      0.12188347	      0.07658467	      0.15811186	      0.13822026	      0.11252139	      0.13726670	      0.06250776	      0.08596028
      0.27105203	     -0.00306887	      0.02292253	     30.00843443	     -0.07041542	      0.03614755	      0.14808798	      0.12597641	      0.08148589	      0.12182062	      0.07658463	      0.15850157	      0.13822022	      0.11253602	      0.13726670	      0.06250587	      0.08596028
      0.27121693	     -0.00306508	      0.02303236	     30.00842280	     -0.07072332	      0.03614721	      0.14808805	      0.12598447	      0.08148589	      0.12178766	      0.07658461	      0.15843751	      0.13822017	      0.11253128	      0.13726670	      0.06250404	      0.08596028
      0.27204141	     -0.00304587	      0.02355222	     30.00836388	     -0.07216764	      0.03614198	      0.14808839	      0.12603247	      0.08148587	      0.12163896	      0.07658454	      0.15813269	      0.13822001	      0.11250921	      0.13726671	      0.06249459	      0.08596030
      0.27328100	     -0.00301625	      0.02426637	     30.00827324	     -0.07414066	      0.03608318	      0.14808890	      0.12620606	      0.08148573	      0.12182563	      0.07658442	      0.15787001	      0.13822000	      0.11248842	      0.13726673	      0.06247523	      0.08596033
      0.27452059	     -0.00298587	      0.02470658	     30.00818053	     -0.07529729	      0.03604772	      0.14808942	      0.12615663	      0.08148557	      0.12176448	      0.07658427	      0.15758236	      0.13822010	      0.11242565	      0.13726678	      0.06245512	      0.08596037
      0.27638249	     -0.00293947	      0.02506575	     30.00803942	     -0.07607977	      0.03603813	      0.14809013	      0.12611102	      0.08148544	      0.12169360	      0.07658417	      0.15698837	      0.13822048	      0.11240974	      0.13726688	      0.06244077	      0.08596044
      0.27790841	     -0.00290099	      0.02538232	     30.00792281	     -0.07678414	      0.03603733	      0.14809063	      0.12602093	      0.08148539	      0.12158850	      0.07658416	      0.15631671	      0.13822109	      0.11239265	      0.13726697	      0.06243429	      0.08596050
      0.27926618	     -0.00286638	      0.02558837	     30.00781826	     -0.07717131	      0.03603663	      0.14809101	      0.12569907	      0.08148546	      0.12126191	      0.07658424	      0.15557417	      0.13822189	      0.11241238	      0.13726705	      0.06249371	      0.08596054
      0.28046252	     -0.00283568	      0.02569808	     30.00772580	     -0.07728752	      0.03603603	      0.14809131	      0.12517882	      0.08148569	      0.12073208	      0.07658450	      0.15466878	      0.13822285	      0.11250344	      0.13726708	      0.06260316	      0.08596049
      0.28092988	     -0.00282367	      0.02568932	     30.00768970	     -0.07715946	      0.03603580	      0.14809142	      0.12495690	      0.08148584	      0.12049380	      0.07658466	      0.15400695	      0.13822335	      0.11248769	      0.13726709	      0.06260444	      0.08596046
      0.28106656	     -0.00282016	      0.02567820	     30.00767916	     -0.07709870	      0.03603573	      0.14809145	      0.12491481	      0.08148589	      0.12045024	      0.07658471	      0.15388292	      0.13822352	      0.11248429	      0.13726709	      0.06260339	      0.08596045
      0.28120324	     -0.00281665	      0.02566113	     30.00766863	     -0.07702226	      0.03603566	      0.14809148	      0.12498391	      0.08148594	      0.12053411	      0.07658476	      0.15409715	      0.13822368	      0.11248674	      0.13726709	      0.06259533	      0.08596044
      0.28188662	     -0.00279915	      0.02554829	     30.00761615	     -0.07655925	      0.03603533	      0.14809162	      0.12530941	      0.08148611	      0.12092887	      0.07658494	      0.15510902	      0.13822431	      0.11249826	      0.13726710	      0.06255526	      0.08596042
      0.28208719	     -0.00279403	      0.02552673	     30.00760081	     -0.07644858	      0.03603430	      0.14809166	      0.12537453	      0.08148615	      0.12101200	      0.07658498	      0.15534272	      0.13822446	      0.11249977	      0.13726711	      0.06254532	      0.08596042
